<?xml version="1.0" standalone="no"?>
<!DOCTYPE svg PUBLIC "-//W3C//DTD SVG 20010904//EN"
 "http://www.w3.org/TR/2001/REC-SVG-20010904/DTD/svg10.dtd">
<svg version="1.0" xmlns="http://www.w3.org/2000/svg"
 width="587.000000pt" height="454.000000pt" viewBox="0 0 587.000000 454.000000"
 preserveAspectRatio="xMidYMid meet">

<g transform="translate(0.000000,454.000000) scale(0.100000,-0.100000)"
fill="#000000" stroke="none">
<path d="M0 2270 l0 -2270 2935 0 2935 0 0 2270 0 2270 -2935 0 -2935 0 0
-2270z m2967 1138 c27 -25 30 -46 7 -55 -8 -3 -20 -17 -26 -32 -10 -24 -11
-25 -18 -6 -4 11 -6 23 -4 27 3 4 -5 9 -16 13 -25 8 -25 16 1 49 25 32 27 32
56 4z m-451 -100 c-3 -13 -6 -33 -6 -45 0 -14 -6 -23 -15 -23 -8 0 -15 -9 -15
-20 0 -26 -45 -28 -54 -3 -7 18 17 43 41 43 8 0 13 13 13 35 0 29 4 35 21 35
17 0 20 -4 15 -22z m894 -17 c0 -17 6 -31 15 -35 22 -8 1 -46 -26 -46 -29 0
-59 18 -59 36 0 12 6 15 26 10 17 -5 25 -3 23 6 -4 30 2 58 11 58 6 0 10 -13
10 -29z m-431 -72 c62 -22 86 -110 45 -164 -53 -70 -152 -67 -189 6 -9 16 -20
27 -25 24 -6 -4 -10 -2 -10 4 0 5 8 12 19 16 13 4 17 12 14 28 -6 29 38 84 70
90 39 7 43 7 76 -4z m-366 -96 l39 -48 -29 -11 c-45 -19 -113 -27 -113 -15 0
6 14 11 30 11 37 0 38 11 4 55 -24 31 -24 34 -7 44 29 17 36 13 76 -36z m628
30 c0 -15 2 -15 7 -3 4 9 23 17 45 19 l37 3 0 -47 c0 -42 -2 -46 -22 -43 -30
4 -34 26 -6 30 l23 5 -25 10 c-32 14 -40 8 -40 -28 0 -26 3 -29 30 -29 22 0
30 -5 29 -17 0 -11 -3 -13 -6 -5 -2 6 -9 12 -14 12 -6 0 -8 -4 -4 -9 3 -5 0
-13 -6 -17 -7 -4 -9 -3 -5 4 3 6 2 13 -4 17 -5 3 -10 1 -10 -6 0 -30 -19 9
-23 46 -4 40 -4 40 -5 -7 -1 -27 -6 -48 -11 -48 -9 0 -20 118 -12 126 10 10
21 3 22 -13z m-517 -44 c13 11 19 11 31 1 25 -21 17 -32 -22 -28 l-38 3 -3
-82 c-3 -83 0 -91 33 -83 22 5 68 1 74 -7 3 -4 27 -18 53 -30 40 -19 48 -20
58 -7 14 16 42 18 56 4 12 -12 69 4 95 26 8 8 38 14 65 14 l49 0 3 74 c3 84
-2 91 -60 87 -30 -2 -38 1 -38 15 0 14 7 16 39 11 22 -2 44 0 49 5 6 6 14 8
19 5 9 -6 9 -204 0 -214 -3 -3 -26 -8 -52 -10 -49 -6 -63 -22 -17 -21 39 1 69
-10 76 -28 4 -12 2 -15 -9 -10 -8 3 -15 1 -15 -4 0 -4 19 -13 43 -18 23 -5 49
-13 58 -16 10 -4 23 -1 32 8 16 17 39 21 50 9 11 -10 -14 -33 -37 -33 -18 -1
-17 -3 9 -17 17 -10 35 -16 41 -15 7 1 14 -7 17 -18 7 -27 23 -25 85 10 l52
30 0 63 c0 36 5 68 12 75 9 9 9 12 0 12 -6 0 -14 -11 -18 -25 -3 -14 -10 -25
-14 -25 -4 0 -11 -10 -14 -22 -6 -22 -7 -22 -17 -5 -10 18 -11 18 -25 0 -12
-16 -13 -11 -7 41 4 44 3 57 -5 52 -15 -9 -15 -1 -2 25 9 15 7 19 -5 19 -20 0
-31 -28 -16 -43 15 -15 14 -27 -3 -27 -18 0 -26 22 -26 77 0 37 5 50 31 74 50
46 104 39 144 -18 19 -29 22 -40 14 -66 -6 -18 -10 -233 -9 -497 l0 -465 -183
-103 c-100 -57 -240 -137 -310 -178 -128 -73 -151 -83 -162 -65 -3 5 -29 23
-58 39 -28 16 -110 63 -182 104 -71 42 -181 105 -244 141 l-113 66 1 434 c2
381 0 435 -13 447 -11 8 -16 29 -16 61 0 43 3 49 24 55 14 3 27 12 30 20 3 8
13 14 21 14 9 0 13 5 10 10 -3 6 4 10 17 10 17 0 31 -12 50 -45 15 -25 34 -45
43 -45 8 0 15 -7 15 -15 0 -8 -4 -15 -9 -15 -23 0 -40 -31 -34 -65 4 -28 2
-35 -11 -35 -9 0 -16 -4 -16 -10 0 -15 -21 -12 -42 7 -25 22 -35 7 -30 -44 4
-36 7 -39 70 -68 37 -16 75 -37 84 -45 22 -20 165 -100 178 -100 6 0 10 15 10
33 0 18 6 39 12 45 10 10 10 15 -2 22 -8 5 -18 6 -22 4 -4 -3 -8 1 -8 8 0 9
12 13 36 13 22 -1 38 4 41 12 8 22 33 15 33 -9 0 -17 13 -30 55 -52 51 -28 55
-29 73 -13 23 21 38 22 50 1 8 -14 16 -12 65 16 53 29 67 47 51 63 -4 3 -16 1
-28 -5 -11 -6 -57 -13 -101 -16 -45 -2 -83 -9 -87 -16 -5 -7 -8 -5 -8 6 0 11
-11 20 -26 24 -37 9 -11 24 43 24 66 0 98 21 54 35 -11 3 -21 16 -23 28 -2 15
-16 26 -47 38 -38 14 -48 14 -85 2 -22 -8 -50 -23 -61 -33 -23 -20 -205 -113
-205 -104 0 3 7 12 15 21 14 14 14 16 -1 27 -27 20 -14 51 21 51 23 0 29 -4
27 -17 -4 -23 0 -23 70 9 39 17 57 31 54 40 -4 8 2 13 17 13 32 0 67 11 67 21
0 4 -21 9 -47 11 l-48 3 -3 104 c-2 76 1 107 10 112 7 4 16 3 19 -3 6 -9 12
-8 23 1z m-199 -9 c3 -5 2 -10 -4 -10 -5 0 -13 5 -16 10 -3 6 -2 10 4 10 5 0
13 -4 16 -10z m213 -338 c2 -7 -1 -12 -7 -12 -6 0 -11 5 -11 11 0 5 -5 7 -12
3 -7 -4 -8 -3 -4 5 9 14 28 10 34 -7z m-401 -824 c29 -32 34 -53 22 -88 -20
-55 -91 -69 -134 -25 -31 30 -32 73 -4 109 27 35 86 37 116 4z m1290 7 c12 -8
24 -28 28 -43 7 -35 -9 -82 -29 -82 -19 0 -33 23 -18 28 20 6 14 60 -7 72 -31
16 -49 12 -68 -16 -17 -26 -17 -27 15 -55 18 -16 39 -29 47 -29 8 0 15 -4 15
-10 0 -5 -16 -10 -35 -10 -64 0 -102 59 -73 113 25 47 82 62 125 32z m-27 -55
c0 -5 -7 -10 -15 -10 -8 0 -15 5 -15 10 0 6 7 10 15 10 8 0 15 -4 15 -10z
m-1736 -431 c17 -25 12 -45 -15 -60 -26 -14 -59 5 -59 34 0 47 48 63 74 26z
m518 4 c23 -21 23 -36 -2 -58 -41 -37 -97 24 -58 63 17 17 38 15 60 -5z m576
-18 c28 -13 52 -27 52 -30 0 -3 -9 -18 -21 -34 l-20 -28 -46 24 c-26 13 -59
23 -75 23 -27 0 -68 -30 -68 -49 0 -20 31 -39 82 -51 121 -29 158 -62 158
-140 0 -107 -149 -162 -270 -99 -65 34 -65 34 -41 66 l22 30 46 -24 c83 -42
173 -25 159 30 -5 21 -16 29 -64 43 -132 38 -160 59 -169 122 -15 115 122 179
255 117z m522 -51 l0 -76 27 17 c54 36 146 16 169 -35 9 -19 14 -185 7 -227
-5 -30 -9 -33 -39 -33 l-34 0 0 103 c0 68 -4 109 -13 121 -15 20 -63 24 -95 7
-21 -11 -22 -19 -22 -121 l0 -110 -40 0 -40 0 0 215 0 215 40 0 40 0 0 -76z
m1070 -139 l0 -215 -40 0 -40 0 0 208 c0 115 3 212 7 215 3 4 21 7 40 7 l33 0
0 -215z m-2942 190 c79 -34 122 -101 122 -192 0 -82 -30 -139 -94 -178 -46
-28 -57 -30 -168 -33 l-118 -4 0 211 0 211 110 0 c77 0 122 -5 148 -15z m507
-99 c19 -8 35 -21 35 -28 0 -10 3 -9 9 2 6 8 7 18 5 22 -3 4 13 8 35 8 l41 0
0 -157 c0 -174 -9 -207 -62 -247 -42 -30 -133 -34 -186 -7 -46 23 -48 27 -28
53 12 16 16 17 54 2 73 -29 142 2 142 63 0 27 0 27 -36 8 -94 -49 -194 22
-194 137 0 61 28 109 80 136 52 26 60 27 105 8z m1203 -18 l34 -21 -25 -25
c-25 -25 -26 -25 -62 -8 -31 15 -41 16 -66 5 -37 -15 -49 -36 -49 -86 0 -73
49 -106 116 -78 32 13 38 13 59 -1 30 -20 23 -38 -23 -60 -76 -36 -163 -12
-210 57 -20 29 -23 44 -20 96 3 55 8 67 37 97 57 59 138 68 209 24z m664 6
c48 -25 73 -72 73 -139 0 -99 -56 -156 -156 -157 -87 0 -148 54 -156 139 -12
134 116 219 239 157z m320 16 c46 -13 103 -76 112 -123 21 -113 -86 -216 -195
-187 -74 20 -119 77 -121 153 -1 73 38 127 109 153 47 16 49 16 95 4z m-2432
-155 l0 -155 -40 0 -40 0 0 155 0 155 40 0 40 0 0 -155z m520 0 l0 -155 -40 0
-40 0 0 148 c0 82 3 152 7 155 3 4 21 7 40 7 l33 0 0 -155z m250 20 l0 -35
-90 0 -90 0 0 35 0 35 90 0 90 0 0 -35z"/>
<path d="M2931 3393 c0 -5 4 -17 9 -28 8 -18 9 -17 9 8 1 15 -3 27 -9 27 -5 0
-10 -3 -9 -7z"/>
<path d="M2936 3202 c-7 -7 -12 -8 -39 -11 -20 -2 -47 -63 -44 -99 4 -38 12
-48 50 -57 23 -6 27 -4 27 14 0 23 1 24 25 15 13 -5 14 -9 4 -15 -8 -4 -10
-11 -7 -15 4 -3 18 5 32 19 14 14 26 24 28 23 2 0 0 3 -4 8 -4 5 -1 14 6 20 9
7 11 18 7 30 -7 17 -11 15 -43 -18 -19 -20 -37 -36 -40 -36 -7 0 -68 56 -68
63 0 4 7 7 15 7 8 0 15 5 15 12 0 6 10 1 22 -12 l21 -23 9 24 c9 22 10 23 22
7 12 -16 26 -15 26 3 0 13 -57 49 -64 41z m-26 -154 c0 -6 -7 -5 -15 2 -8 7
-15 17 -15 22 0 6 7 5 15 -2 8 -7 15 -17 15 -22z"/>
<path d="M3450 3050 c-8 -5 -23 -11 -32 -14 -10 -3 -18 -15 -18 -26 0 -18 7
-20 63 -21 49 -1 55 -3 27 -8 -31 -5 -35 -10 -38 -38 -2 -24 1 -33 12 -33 8 0
16 -8 18 -17 2 -11 10 2 18 29 8 26 17 45 22 42 4 -3 6 12 4 32 -5 52 -39 76
-76 54z"/>
<path d="M2363 3016 c-9 -11 -6 -15 19 -20 37 -7 45 -2 28 19 -15 18 -31 19
-47 1z"/>
<path d="M2333 2983 c-24 -8 -15 -60 13 -82 33 -26 39 -26 64 -1 21 21 25 46
12 66 -8 13 -69 24 -89 17z"/>
<path d="M2917 2864 c-3 -3 -3 -12 0 -20 4 -11 9 -12 19 -3 8 6 14 15 14 20 0
10 -24 12 -33 3z"/>
<path d="M3013 2857 c-35 -13 -46 -22 -50 -40 -1 -7 -6 -25 -9 -40 l-7 -28 61
6 c51 5 64 3 79 -12 10 -10 30 -23 44 -30 19 -8 28 -22 33 -47 4 -20 5 -40 2
-45 -3 -5 1 -14 8 -21 12 -9 26 -5 70 19 30 17 59 31 65 31 13 0 61 48 61 60
0 6 -8 10 -17 10 -9 0 -45 16 -81 35 -60 34 -66 35 -88 20 -13 -8 -28 -15 -33
-15 -10 0 -7 53 4 70 3 5 -7 12 -22 16 -15 3 -41 10 -57 15 -16 5 -29 9 -30 8
-1 0 -15 -6 -33 -12z"/>
<path d="M2350 2645 c0 -70 3 -86 14 -82 8 3 32 11 55 18 39 12 41 14 41 54 0
42 -5 47 -102 93 -5 2 -8 -35 -8 -83z"/>
<path d="M3453 2698 c-50 -27 -53 -32 -53 -67 0 -37 1 -39 48 -52 26 -7 53
-15 60 -17 9 -3 12 18 12 82 0 47 -3 85 -7 85 -5 -1 -32 -15 -60 -31z"/>
<path d="M3115 2680 c-4 -6 -11 -8 -16 -4 -12 7 -99 -42 -121 -70 l-18 -21 -6
23 c-8 27 -41 26 -36 -1 2 -9 1 -17 -1 -17 -3 0 -40 20 -83 45 -100 57 -114
57 -114 6 0 -27 7 -46 25 -65 26 -29 32 -51 15 -61 -16 -10 -5 -20 56 -55 54
-30 84 -33 84 -9 0 6 9 22 20 36 l19 25 15 -35 c8 -20 24 -41 36 -47 19 -10
20 -13 6 -23 -20 -16 -10 -30 40 -55 40 -20 75 -52 57 -52 -5 0 -26 9 -46 19
-36 18 -40 18 -67 3 -33 -19 -37 -32 -39 -119 -1 -42 2 -63 9 -63 7 0 52 21
101 46 71 37 89 50 83 63 -21 51 -19 55 14 31 l31 -23 63 32 c35 18 73 44 85
57 12 13 25 19 28 14 3 -6 40 7 86 30 59 30 79 45 79 60 0 18 -7 20 -70 20
-56 0 -70 3 -70 15 0 8 -5 15 -11 15 -5 0 -8 -3 -5 -8 11 -18 -22 -37 -66 -38
-66 -2 -63 21 3 40 74 22 79 29 72 89 -7 63 -16 76 -40 55 -42 -37 -149 -83
-195 -84 -26 0 -54 -7 -63 -14 -32 -27 -13 8 25 45 31 30 40 47 40 72 0 32
-12 43 -25 23z m-145 -120 c13 -9 12 -12 -4 -25 -28 -21 -87 -1 -72 24 9 14
56 14 76 1z m98 -65 c0 -30 -7 -28 -13 4 -2 11 0 21 4 21 5 0 9 -11 9 -25z
m134 8 c40 -46 30 -93 -23 -112 -61 -21 -89 1 -89 71 0 50 79 78 112 41z"/>
<path d="M3135 2476 c-22 -16 -12 -56 14 -56 20 0 41 19 41 37 0 21 -35 34
-55 19z"/>
<path d="M2500 2633 c0 -10 -3 -41 -6 -70 -6 -50 -6 -51 27 -69 19 -9 48 -20
64 -24 l30 -7 -30 -13 c-24 -9 -36 -9 -60 0 -16 7 -63 14 -102 16 -65 4 -73 2
-73 -14 0 -25 160 -109 171 -90 5 7 9 19 9 26 0 7 5 10 10 7 6 -3 10 -20 10
-36 0 -27 7 -33 81 -69 l82 -39 28 22 c15 12 28 29 28 38 1 9 20 24 44 35 23
10 55 31 70 47 25 25 32 27 58 18 37 -13 45 1 14 25 -14 10 -25 26 -25 34 0 8
-8 0 -17 -18 -21 -43 -49 -59 -71 -39 -9 8 -27 20 -40 26 -20 11 -26 9 -51
-18 -16 -17 -36 -31 -44 -31 -20 0 -67 39 -67 56 0 8 -5 14 -10 14 -12 0 -2
50 13 65 7 7 8 4 4 -7 -8 -23 20 -24 50 -3 14 10 24 12 28 5 10 -17 25 -11 25
10 0 15 -7 20 -25 20 -14 0 -26 -1 -27 -1 -2 -1 -47 22 -100 50 -82 43 -98 49
-98 34z"/>
<path d="M2398 2543 c-41 -11 -48 -17 -48 -38 0 -21 5 -25 29 -25 46 0 103 56
74 73 -5 3 -29 -2 -55 -10z"/>
<path d="M3417 2544 c-3 -4 0 -19 9 -35 12 -25 21 -29 54 -29 36 0 40 3 40 25
0 19 -7 26 -37 34 -44 13 -57 13 -66 5z"/>
<path d="M2696 2464 c-5 -12 -9 -14 -20 -5 -7 6 -16 8 -19 4 -14 -13 -6 -28
19 -40 22 -10 28 -9 45 8 11 11 18 26 16 32 -6 19 -34 20 -41 1z"/>
<path d="M2349 2266 c-1 -69 -2 -135 -2 -146 -1 -11 1 -21 3 -22 3 -1 29 11
58 28 l53 29 -3 90 -3 90 -52 28 -53 28 -1 -125z"/>
<path d="M3458 2358 l-58 -31 0 -86 0 -86 60 -33 60 -33 0 151 c0 82 -1 150
-2 150 -2 0 -29 -15 -60 -32z"/>
<path d="M2809 2313 c-41 -33 -82 -74 -77 -77 51 -33 171 -96 176 -92 3 3 4
39 3 78 -2 58 -7 78 -23 96 -28 29 -38 28 -79 -5z"/>
<path d="M2494 2304 c3 -9 6 -42 6 -74 l0 -59 53 24 c59 28 79 31 71 12 -2 -7
-32 -25 -64 -41 -42 -19 -60 -32 -60 -46 0 -10 -3 -26 -6 -35 -6 -15 -4 -15
12 -5 16 10 30 7 78 -14 88 -39 94 -37 98 37 3 49 0 66 -14 83 -26 29 -22 41
5 16 21 -20 37 -21 37 -1 0 4 -21 18 -47 30 -27 13 -74 38 -106 56 -67 38 -71
39 -63 17z"/>
<path d="M3267 2262 l-88 -47 3 -85 c3 -73 6 -85 21 -88 20 -4 142 52 153 69
9 15 -15 38 -68 65 -48 24 -62 44 -31 44 9 0 36 -11 60 -25 23 -14 43 -22 43
-18 1 4 3 36 5 71 3 34 1 62 -3 61 -4 0 -47 -22 -95 -47z"/>
<path d="M2720 2165 c-5 -14 -10 -48 -10 -75 0 -62 19 -84 123 -140 l77 -41 0
94 0 95 -82 43 c-46 24 -86 45 -90 47 -5 2 -12 -8 -18 -23z"/>
<path d="M3038 2142 l-87 -47 -3 -84 c-2 -45 0 -87 3 -93 7 -12 148 52 168 76
20 24 41 20 41 -9 0 -18 5 -25 20 -25 25 0 26 -16 1 -30 -27 -14 -57 -13 -73
4 -12 11 -25 7 -86 -26 l-72 -40 0 -74 c0 -41 2 -74 5 -74 10 0 501 280 546
311 22 15 22 15 -35 47 -56 32 -76 34 -76 8 0 -21 -129 -81 -174 -82 -22 0
-34 2 -28 4 19 6 14 19 -10 25 -12 4 -28 1 -35 -5 -9 -7 -13 -7 -13 0 0 6 3
13 8 15 13 9 14 111 0 129 -12 16 -20 13 -100 -30z"/>
<path d="M2403 2080 c-29 -17 -53 -32 -53 -35 0 -8 541 -325 555 -325 3 0 5
34 5 75 l0 75 -47 30 c-59 37 -82 45 -96 31 -14 -14 -32 -14 -79 -1 -20 6 -39
17 -42 26 -4 10 -1 14 6 11 7 -2 21 0 31 5 14 7 24 5 38 -8 16 -14 19 -15 19
-2 0 21 -37 53 -42 37 -3 -9 -11 -10 -24 -4 -10 5 -30 10 -44 12 -52 6 -144
51 -157 77 -8 14 -15 26 -16 26 -1 0 -26 -14 -54 -30z"/>
<path d="M2246 1908 c-20 -29 -20 -34 4 -58 24 -24 43 -25 64 -4 20 20 20 48
0 68 -22 22 -50 20 -68 -6z"/>
<path d="M1434 1377 c-2 -7 -3 -69 -2 -138 l3 -124 45 -3 c76 -5 121 16 148
68 26 51 28 87 8 135 -21 49 -68 75 -139 75 -38 0 -59 -4 -63 -13z"/>
<path d="M2053 1280 c-49 -20 -60 -104 -18 -145 26 -27 54 -31 88 -14 31 17
37 28 37 79 0 51 -6 62 -37 79 -25 13 -40 13 -70 1z"/>
<path d="M3873 1283 c-33 -6 -53 -41 -53 -90 0 -71 58 -110 118 -79 55 28 56
133 2 161 -16 8 -33 14 -37 14 -4 -1 -18 -4 -30 -6z"/>
<path d="M4218 1279 c-34 -13 -51 -63 -37 -113 12 -44 33 -60 75 -60 50 0 79
33 79 89 0 69 -53 107 -117 84z"/>
</g>
</svg>
